<svg width="1962" height="645" viewBox="0 0 1962 645" fill="none" xmlns="http://www.w3.org/2000/svg">
<g clip-path="url(#clip0_2_48)">
<g clip-path="url(#clip1_2_48)">
<g clip-path="url(#clip2_2_48)">
<g clip-path="url(#clip3_2_48)">
<g clip-path="url(#clip4_2_48)">
<g clip-path="url(#clip5_2_48)">
<g clip-path="url(#clip6_2_48)">
<g clip-path="url(#clip7_2_48)">
<path d="M87.0221 377.64C71.4226 377.64 57.0334 374.738 43.8545 368.933C30.6755 363.181 20.1862 353.856 12.3864 340.956C4.58665 328.056 0.686768 310.99 0.686768 289.759V168.418C0.686768 147.187 4.64044 130.121 12.5478 117.221C20.5089 104.321 31.079 94.969 44.2579 89.164C57.4368 83.4127 71.826 80.5371 87.4256 80.5371C105.715 80.5371 121.314 83.6277 134.224 89.8089C147.134 95.9902 157.086 104.402 164.078 115.045C171.071 125.633 174.568 137.512 174.568 150.681C174.568 158.206 173.169 163.178 170.372 165.596C167.521 168.015 163.272 169.225 157.623 169.225C152.244 169.225 148.156 168.15 145.359 166C142.508 163.85 140.948 161.028 140.679 157.534C140.41 153.503 139.684 148.853 138.501 143.586C137.263 138.372 134.843 133.266 131.239 128.267C127.581 123.322 122.336 119.237 115.505 116.012C108.619 112.787 99.5287 111.175 88.2324 111.175C71.0192 111.175 57.7865 115.797 48.5343 125.042C39.2284 134.341 34.5754 148.8 34.5754 168.418V289.759C34.5754 309.378 39.2822 323.81 48.6957 333.055C58.1092 342.353 71.6916 347.003 89.4427 347.003C100.739 347.003 109.695 345.39 116.312 342.165C122.874 338.94 127.769 334.909 130.997 330.071C134.224 325.234 136.51 320.047 137.855 314.511C139.2 309.028 140.141 303.868 140.679 299.031C140.948 295 142.562 292.043 145.52 290.162C148.479 288.281 152.513 287.34 157.623 287.34C163.272 287.34 167.521 288.603 170.372 291.13C173.169 293.71 174.568 298.762 174.568 306.287C174.568 319.456 171.018 331.469 163.917 342.326C156.763 353.238 146.677 361.838 133.659 368.126C120.588 374.469 105.042 377.64 87.0221 377.64ZM254.045 378.446C238.983 378.446 226.127 374.066 215.476 365.305C204.879 356.597 199.581 343.106 199.581 324.831C199.581 310.05 203.615 298.547 211.684 290.323C219.753 282.153 230.834 276.51 244.927 273.392C259.074 270.328 275.427 268.796 293.985 268.796H313.35V260.331C313.35 252.268 311.871 244.394 308.912 236.708C305.954 229.075 301.301 222.76 294.953 217.761C288.66 212.816 279.999 210.343 268.972 210.343C259.558 210.343 252.081 211.284 246.541 213.165C241.054 215.046 236.697 216.981 233.469 218.97C230.242 221.013 227.418 222.034 224.997 222.034C220.963 222.034 217.87 220.072 215.718 216.148C213.567 212.278 212.491 208.596 212.491 205.103C212.491 200.803 215.449 196.906 221.366 193.412C227.283 189.918 234.68 187.096 243.555 184.946C252.431 182.796 261.172 181.721 269.779 181.721C288.606 181.721 303.667 185.484 314.964 193.009C326.26 200.534 334.382 210.209 339.331 222.034C344.334 233.859 346.835 246.49 346.835 259.928V363.128C346.835 366.353 345.275 369.175 342.155 371.593C339.089 374.012 335.135 375.221 330.294 375.221C325.991 375.221 322.36 374.012 319.401 371.593C316.443 369.175 314.964 366.353 314.964 363.128V347.003C307.971 355.065 299.499 362.321 289.547 368.771C279.596 375.221 267.762 378.446 254.045 378.446ZM264.534 351.437C272.334 351.437 279.918 349.287 287.288 344.987C294.711 340.687 300.897 335.312 305.846 328.862C310.849 322.412 313.35 316.231 313.35 310.318V289.356H299.23C287.933 289.356 277.229 290.028 267.116 291.371C257.057 292.715 248.935 295.591 242.749 299.998C236.563 304.46 233.469 311.528 233.469 321.203C233.469 331.684 236.428 339.343 242.345 344.181C248.262 349.018 255.659 351.437 264.534 351.437ZM408.561 375.221C403.989 375.221 400.142 373.931 397.023 371.351C393.956 368.825 392.423 366.084 392.423 363.128V195.831C392.423 192.337 393.956 189.515 397.023 187.365C400.142 185.215 403.989 184.14 408.561 184.14C413.079 184.14 416.845 185.215 419.857 187.365C422.816 189.515 424.295 192.337 424.295 195.831V214.778C427.253 209.134 431.288 203.813 436.398 198.814C441.508 193.869 447.479 189.784 454.31 186.559C461.196 183.334 468.807 181.721 477.145 181.721H490.862C494.305 181.721 497.317 183.2 499.899 186.156C502.481 189.112 503.772 192.74 503.772 197.04C503.772 201.071 502.481 204.565 499.899 207.521C497.317 210.478 494.305 211.956 490.862 211.956H477.145C468.538 211.956 460.335 214.375 452.535 219.212C444.736 224.05 438.334 230.849 433.332 239.61C428.383 248.318 425.909 258.853 425.909 271.215V363.128C425.909 366.084 424.214 368.825 420.825 371.351C417.49 373.931 413.402 375.221 408.561 375.221ZM605.761 378.446C588.278 378.446 572.813 375.141 559.365 368.53C545.917 361.972 535.294 352.835 527.494 341.117C519.694 329.453 515.794 315.828 515.794 300.24V257.912C515.794 244.206 519.506 231.575 526.929 220.018C534.298 208.462 544.035 199.19 556.138 192.203C568.241 185.215 581.554 181.721 596.078 181.721C610.064 181.721 622.92 184.946 634.647 191.396C646.319 197.846 655.733 206.581 662.887 217.6C669.988 228.618 673.538 241.384 673.538 255.896C673.538 266.646 671.79 274.36 668.293 279.036C664.797 283.766 660.359 286.668 654.98 287.743C649.601 288.818 643.953 289.356 638.035 289.356H549.279V301.45C549.279 316.5 554.659 328.378 565.417 337.086C576.175 345.847 590.026 350.228 606.971 350.228C616.922 350.228 624.857 348.884 630.774 346.196C636.691 343.509 641.532 340.875 645.297 338.295C649.063 335.769 652.425 334.506 655.383 334.506C658.342 334.506 660.843 335.366 662.887 337.086C664.877 338.86 666.41 340.956 667.486 343.375C668.562 345.793 669.1 347.943 669.1 349.825C669.1 353.318 666.545 357.269 661.435 361.676C656.325 366.138 649.009 370.035 639.488 373.367C629.913 376.753 618.671 378.446 605.761 378.446ZM549.279 252.268V266.781H623.915C631.177 266.781 635.964 265.894 638.277 264.12C640.537 262.4 641.666 258.987 641.666 253.881C641.666 245.818 639.73 238.374 635.857 231.548C631.93 224.668 626.47 219.078 619.477 214.778C612.484 210.478 604.55 208.328 595.675 208.328C587.337 208.328 579.672 210.263 572.679 214.133C565.686 218.056 560.038 223.378 555.734 230.096C551.431 236.815 549.279 244.206 549.279 252.268Z" fill="#2F2F2F"/>
</g>
<g clip-path="url(#clip8_2_48)">
<path d="M1073.45 398.836C1073.45 448.413 983.712 455.813 930.226 455.813C876.74 455.813 787 448.412 787 398.836C787 361.835 837.032 348.314 884.643 343.863L892.741 372.045C847.969 375.912 815.645 386.373 815.645 398.836C815.645 414.583 866.95 427.325 930.226 427.325C993.531 427.325 1044.81 414.583 1044.81 398.836C1044.81 386.373 1012.5 375.912 967.711 372.045L975.824 343.863C1023.43 348.314 1073.45 361.835 1073.45 398.836ZM982.537 216.723L930.226 398.836L876.586 212.132C842.445 192.407 819.226 156.046 819.226 113.953C819.226 51.0235 870.53 0 933.807 0C997.083 0 1048.39 51.0235 1048.39 113.953C1048.39 159.468 1021.37 198.473 982.537 216.723ZM987.516 113.953C987.516 82.4879 961.865 56.9766 930.226 56.9766C898.587 56.9766 872.936 82.4879 872.936 113.953C872.936 145.419 898.587 170.93 930.226 170.93C961.865 170.93 987.516 145.419 987.516 113.953Z" fill="#00A38D"/>
<path d="M1010.81 110.246C1010.81 152.908 976.036 187.492 933.139 187.492C890.242 187.492 855.467 152.908 855.467 110.246C855.467 67.5842 890.242 33 933.139 33C976.036 33 1010.81 67.5842 1010.81 110.246Z" fill="white"/>
<rect x="883.467" y="98" width="98.1" height="24.5061" rx="12.253" fill="#00A38D"/>
<path d="M932.73 159.024C925.958 159.024 920.467 153.534 920.467 146.762V73.2625C920.467 66.4901 925.958 61 932.73 61V61C939.502 61 944.992 66.4901 944.992 73.2625V146.762C944.992 153.534 939.502 159.024 932.73 159.024V159.024Z" fill="#00A38D"/>
</g>
<g clip-path="url(#clip9_2_48)">
<g filter="url(#filter0_d_2_48)">
<path d="M1207.94 375.221C1203.91 375.221 1200.09 374.2 1196.49 372.158C1192.83 370.169 1191 367.159 1191 363.128V92.2277C1191 89.0027 1192.29 86.3152 1194.87 84.1652C1197.4 82.0152 1200.68 80.8058 1204.72 80.5371H1280.97C1297.1 80.5371 1311.63 83.4127 1324.54 89.164C1337.45 94.969 1347.67 104.187 1355.2 116.818C1362.73 129.45 1366.49 146.381 1366.49 167.612V171.24C1366.49 192.203 1362.68 209.134 1355.04 222.034C1347.35 234.934 1336.91 244.26 1323.73 250.011C1310.55 255.816 1295.76 258.718 1279.35 258.718H1224.89V363.128C1224.89 367.159 1223.14 370.169 1219.64 372.158C1216.15 374.2 1212.25 375.221 1207.94 375.221ZM1224.89 111.175V230.5H1279.35C1296.03 230.5 1309.07 225.796 1318.49 216.39C1327.9 206.984 1332.61 192.606 1332.61 173.256V168.418C1332.61 148.8 1327.9 134.341 1318.49 125.042C1309.07 115.797 1296.03 111.175 1279.35 111.175H1224.89ZM1464.53 378.446C1450.28 378.446 1437.1 374.738 1424.99 367.32C1412.89 359.956 1403.21 350.362 1395.95 338.537C1388.68 326.712 1385.05 313.946 1385.05 300.24V259.121C1385.05 245.415 1388.6 232.703 1395.7 220.986C1402.86 209.322 1412.49 199.862 1424.59 192.606C1436.69 185.35 1450.01 181.721 1464.53 181.721C1478.78 181.721 1491.96 185.269 1504.07 192.364C1516.17 199.513 1525.91 208.865 1533.28 220.421C1540.7 231.978 1544.41 244.878 1544.41 259.121V300.24C1544.41 313.678 1540.7 326.363 1533.28 338.295C1525.91 350.281 1516.17 359.956 1504.07 367.32C1491.96 374.738 1478.78 378.446 1464.53 378.446ZM1464.53 348.212C1473.14 348.212 1480.86 345.928 1487.69 341.359C1494.57 336.79 1500.17 330.797 1504.47 323.38C1508.77 316.016 1510.92 308.303 1510.92 300.24V259.121C1510.92 251.328 1508.83 243.803 1504.63 236.546C1500.49 229.29 1494.92 223.378 1487.93 218.809C1480.94 214.24 1473.14 211.956 1464.53 211.956C1455.92 211.956 1448.12 214.24 1441.13 218.809C1434.14 223.378 1428.62 229.29 1424.59 236.546C1420.56 243.803 1418.54 251.328 1418.54 259.121V300.24C1418.54 308.303 1420.56 316.016 1424.59 323.38C1428.62 330.797 1434.14 336.79 1441.13 341.359C1448.12 345.928 1455.92 348.212 1464.53 348.212ZM1601.29 375.221C1596.45 375.221 1592.47 373.931 1589.35 371.351C1586.29 368.825 1584.75 366.084 1584.75 363.128V195.831C1584.75 192.337 1586.29 189.515 1589.35 187.365C1592.47 185.215 1596.45 184.14 1601.29 184.14C1605.87 184.14 1609.82 185.215 1613.16 187.365C1616.54 189.515 1618.24 192.337 1618.24 195.831V363.128C1618.24 366.084 1616.54 368.825 1613.16 371.351C1609.82 373.931 1605.87 375.221 1601.29 375.221ZM1601.29 131.734C1595.38 131.734 1590.4 129.772 1586.37 125.848C1582.33 121.978 1580.32 117.49 1580.32 112.384C1580.32 107.278 1582.33 102.843 1586.37 99.0808C1590.4 95.3183 1595.38 93.4371 1601.29 93.4371C1606.94 93.4371 1611.78 95.3183 1615.82 99.0808C1619.85 102.843 1621.87 107.278 1621.87 112.384C1621.87 117.49 1619.85 121.978 1615.82 125.848C1611.78 129.772 1606.94 131.734 1601.29 131.734ZM1681.9 375.221C1677.06 375.221 1673.11 373.931 1670.04 371.351C1666.92 368.825 1665.36 366.084 1665.36 363.128V195.831C1665.36 192.337 1666.92 189.515 1670.04 187.365C1673.11 185.215 1677.06 184.14 1681.9 184.14C1686.2 184.14 1689.84 185.215 1692.79 187.365C1695.75 189.515 1697.23 192.337 1697.23 195.831V212.359C1701.54 204.565 1708.26 197.497 1717.4 191.155C1726.55 184.866 1737.84 181.721 1751.29 181.721C1764.2 181.721 1776.04 185.269 1786.79 192.364C1797.55 199.513 1806.16 208.865 1812.61 220.421C1819.07 231.978 1822.3 244.878 1822.3 259.121V363.128C1822.3 367.159 1820.55 370.169 1817.05 372.158C1813.56 374.2 1809.66 375.221 1805.35 375.221C1801.32 375.221 1797.55 374.2 1794.06 372.158C1790.56 370.169 1788.81 367.159 1788.81 363.128V259.121C1788.81 251.328 1786.74 243.803 1782.6 236.546C1778.4 229.29 1772.81 223.378 1765.82 218.809C1758.82 214.24 1751.16 211.956 1742.82 211.956C1735.56 211.956 1728.57 213.891 1721.84 217.761C1715.12 221.685 1709.6 227.06 1705.3 233.886C1701 240.766 1698.85 249.178 1698.85 259.121V363.128C1698.85 366.084 1697.18 368.825 1693.84 371.351C1690.45 373.931 1686.47 375.221 1681.9 375.221ZM1946.56 375.221H1934.05C1912.26 375.221 1895.67 370.384 1884.26 360.709C1872.81 351.034 1867.08 335.581 1867.08 314.35V106.74C1867.08 103.246 1868.83 100.425 1872.32 98.2746C1875.82 96.1246 1879.59 95.0496 1883.62 95.0496C1887.92 95.0496 1891.82 96.1246 1895.32 98.2746C1898.82 100.425 1900.56 103.246 1900.56 106.74V184.14H1951.4C1954.62 184.14 1957.13 185.484 1958.9 188.171C1960.62 190.859 1961.48 193.95 1961.48 197.443C1961.48 200.937 1960.62 203.947 1958.9 206.473C1957.13 209.053 1954.62 210.343 1951.4 210.343H1900.56V314.35C1900.56 325.906 1903.07 334.022 1908.07 338.698C1913.02 343.428 1921.68 345.793 1934.05 345.793H1946.56C1951.4 345.793 1955.03 347.271 1957.45 350.228C1959.87 353.184 1961.08 356.543 1961.08 360.306C1961.08 364.068 1959.87 367.481 1957.45 370.545C1955.03 373.663 1951.4 375.221 1946.56 375.221Z" fill="#2F2F2F"/>
</g>
</g>
</g>
</g>
<g clip-path="url(#clip10_2_48)">
<g clip-path="url(#clip11_2_48)">
<path d="M61.8486 620.407L53.1944 597.101H19.844L11.2953 620.407H0.741394L30.8201 539.521H42.2183L72.4025 620.407H61.8486ZM23.3268 587.926H49.7116L36.5192 552.281L23.3268 587.926ZM132.349 622.199C122.147 622.199 113.035 620.301 105.014 616.505V606.803C113.105 611.091 122.217 613.236 132.349 613.236C138.175 613.236 142.445 612.005 145.161 609.545C147.877 607.084 149.235 603.85 149.235 599.842C149.235 596.046 147.983 593.199 145.478 591.3C142.987 589.402 139.314 587.75 134.46 586.344L127.283 584.34C123.202 583.145 119.719 581.774 116.835 580.227C113.95 578.681 111.536 576.445 109.595 573.52C107.667 570.61 106.703 566.799 106.703 562.089C106.703 554.566 108.898 548.836 113.288 544.899C117.693 540.962 123.941 538.993 132.032 538.993C136.746 538.993 140.897 539.429 144.486 540.301C148.074 541.187 151.803 542.509 155.673 544.266V553.757C148.496 549.891 140.616 547.957 132.032 547.957C126.826 547.957 123.026 549.166 120.634 551.585C118.242 554.017 117.046 557.343 117.046 561.561C117.116 565.428 118.291 568.275 120.571 570.103C122.864 571.931 126.439 573.548 131.293 574.954L138.576 576.958C142.868 578.153 146.505 579.538 149.488 581.113C152.486 582.702 154.913 584.987 156.771 587.968C158.628 590.963 159.557 594.851 159.557 599.631C159.5 606.592 157.059 612.097 152.232 616.146C147.42 620.182 140.792 622.199 132.349 622.199ZM241.35 560.823C248.456 560.823 253.719 562.721 257.138 566.518C260.544 570.314 262.246 576.571 262.246 585.289V620.407H252.326V585.289C252.326 579.735 251.432 575.812 249.645 573.52C247.844 571.242 244.621 570.103 239.978 570.103C234.49 570.103 229.002 572.74 223.514 578.013C223.795 579.981 223.936 582.407 223.936 585.289V620.407H214.015V585.289C214.015 579.735 213.121 575.812 211.334 573.52C209.533 571.242 206.311 570.103 201.667 570.103C196.32 570.103 190.972 572.494 185.625 577.274V620.407H175.704V562.089H185.625V568.311C191.324 563.319 197.129 560.823 203.039 560.823C207.753 560.823 211.623 561.61 214.648 563.185C217.674 564.774 219.96 567.291 221.508 570.736C227.911 564.127 234.525 560.823 241.35 560.823ZM296.863 562.089C303.055 562.089 307.769 563.122 311.006 565.189C314.242 567.27 316.388 570.047 317.443 573.52C318.499 577.007 319.027 581.387 319.027 586.66V620.407H309.106V614.606C306.432 617.137 303.759 618.965 301.085 620.09C298.411 621.215 295.526 621.778 292.431 621.778C288.772 621.778 285.465 620.983 282.51 619.394C279.555 617.819 277.219 615.535 275.502 612.54C273.771 609.559 272.906 606.029 272.906 601.952C272.906 595.624 274.876 590.717 278.816 587.23C282.756 583.757 288.068 582.02 294.752 582.02C300.029 582.02 304.779 583.18 309 585.5C308.93 582.055 308.578 579.313 307.945 577.274C307.312 575.236 306.01 573.668 304.04 572.571C302.07 571.488 299.15 570.947 295.28 570.947H287.47V562.089H296.863ZM293.803 613.236C296.195 613.236 298.714 612.673 301.359 611.548C303.991 610.423 306.573 608.736 309.106 606.486V593.199C305.166 591.23 300.874 590.246 296.23 590.246C292.501 590.246 289.37 591.139 286.837 592.924C284.304 594.724 283.038 597.733 283.038 601.952C283.038 605.889 284.114 608.757 286.267 610.557C288.406 612.343 290.918 613.236 293.803 613.236ZM362.931 560.823H365.358V570.103H362.931C356.88 570.103 351.005 572.529 345.306 577.38V620.407H335.385V562.089H345.306V568.627C351.075 563.424 356.95 560.823 362.931 560.823ZM403.458 572.002H389.949V605.326C389.949 608.138 390.385 610.058 391.258 611.084C392.144 612.097 393.783 612.603 396.176 612.603C398.286 612.603 400.538 612.322 402.93 611.759V620.723C399.764 621.426 396.95 621.778 394.487 621.778C389.14 621.778 385.39 620.688 383.237 618.508C381.098 616.329 380.028 612.673 380.028 607.541V572.002H372.429V562.827H380.028V542.79H389.949V562.827H403.458V572.002ZM424.122 592.039C424.263 598.507 425.881 603.674 428.977 607.541C432.073 611.408 436.998 613.341 443.753 613.341C448.889 613.341 454.518 611.9 460.639 609.017L463.7 617.243C457.297 620.547 450.367 622.199 442.908 622.199C436.717 622.199 431.44 620.899 427.078 618.298C422.715 615.696 419.408 612.076 417.157 607.435C414.905 602.795 413.78 597.382 413.78 591.195C413.78 584.656 414.962 579.081 417.326 574.469C419.676 569.871 422.856 566.377 426.866 563.987C430.877 561.596 435.38 560.401 440.375 560.401C448.045 560.401 454.06 562.792 458.423 567.572C462.785 572.353 464.966 579.208 464.966 588.137V592.039H424.122ZM440.375 569.26C431.651 569.26 426.444 574.076 424.756 583.707H454.518C454.166 578.786 452.829 575.144 450.507 572.782C448.185 570.434 444.808 569.26 440.375 569.26ZM506.654 560.823H509.081V570.103H506.654C500.603 570.103 494.728 572.529 489.029 577.38V620.407H479.108V562.089H489.029V568.627C494.799 563.424 500.674 560.823 506.654 560.823ZM636.784 540.47H647.127L624.119 621.356H612.721L593.407 555.656L574.199 621.356H562.801L539.688 540.47H550.031L568.606 607.541L587.603 540.47H599.212L618.315 607.646L636.784 540.47ZM678.767 562.089C684.959 562.089 689.673 563.122 692.91 565.189C696.146 567.27 698.292 570.047 699.348 573.52C700.403 577.007 700.931 581.387 700.931 586.66V620.407H691.01V614.606C688.336 617.137 685.663 618.965 682.989 620.09C680.315 621.215 677.431 621.778 674.335 621.778C670.676 621.778 667.369 620.983 664.414 619.394C661.459 617.819 659.123 615.535 657.406 612.54C655.675 609.559 654.81 606.029 654.81 601.952C654.81 595.624 656.78 590.717 660.72 587.23C664.66 583.757 669.973 582.02 676.657 582.02C681.934 582.02 686.683 583.18 690.904 585.5C690.834 582.055 690.482 579.313 689.849 577.274C689.216 575.236 687.914 573.668 685.944 572.571C683.974 571.488 681.054 570.947 677.184 570.947H669.374V562.089H678.767ZM675.707 613.236C678.099 613.236 680.618 612.673 683.263 611.548C685.895 610.423 688.477 608.736 691.01 606.486V593.199C687.07 591.23 682.778 590.246 678.134 590.246C674.405 590.246 671.274 591.139 668.741 592.924C666.208 594.724 664.942 597.733 664.942 601.952C664.942 605.889 666.018 608.757 668.171 610.557C670.31 612.343 672.822 613.236 675.707 613.236ZM754.228 562.089H764.254L738.397 629.792C736.568 634.573 734.914 638.124 733.437 640.444C731.959 642.764 730.221 644.416 728.223 645.4C726.211 646.384 723.446 646.877 719.928 646.877C717.887 646.877 715.812 646.595 713.701 646.033V637.069C715.53 637.491 717.36 637.702 719.189 637.702C721.581 637.702 723.467 636.999 724.846 635.593C726.211 634.186 727.702 631.409 729.321 627.261L732.065 620.196L709.902 562.089H720.244L737.025 607.224L754.228 562.089ZM824.517 572.002H811.008V605.326C811.008 608.138 811.444 610.058 812.317 611.084C813.203 612.097 814.843 612.603 817.235 612.603C819.346 612.603 821.597 612.322 823.989 611.759V620.723C820.823 621.426 818.009 621.778 815.546 621.778C810.199 621.778 806.449 620.688 804.296 618.508C802.157 616.329 801.087 612.673 801.087 607.541V572.002H793.489V562.827H801.087V542.79H811.008V562.827H824.517V572.002ZM863.651 622.199C857.459 622.199 852.204 620.85 847.883 618.15C843.549 615.436 840.292 611.738 838.111 607.056C835.929 602.387 834.839 597.136 834.839 591.3C834.839 585.465 835.929 580.206 838.111 575.524C840.292 570.856 843.549 567.165 847.883 564.451C852.204 561.751 857.459 560.401 863.651 560.401C869.843 560.401 875.106 561.751 879.44 564.451C883.76 567.165 886.996 570.856 889.149 575.524C891.288 580.206 892.358 585.465 892.358 591.3C892.358 597.136 891.288 602.387 889.149 607.056C886.996 611.738 883.76 615.436 879.44 618.15C875.106 620.85 869.843 622.199 863.651 622.199ZM863.651 613.236C869.491 613.236 874.015 611.197 877.223 607.119C880.418 603.041 882.015 597.768 882.015 591.3C882.015 584.832 880.418 579.573 877.223 575.524C874.015 571.488 869.491 569.471 863.651 569.471C857.811 569.471 853.273 571.488 850.036 575.524C846.8 579.573 845.182 584.832 845.182 591.3C845.182 597.768 846.8 603.041 850.036 607.119C853.273 611.197 857.811 613.236 863.651 613.236ZM996.103 540.47H1007.4V620.407H997.158V555.972L972.673 590.035H967.291L943.017 555.972V620.407H932.779V540.47H943.966L970.035 576.958L996.103 540.47ZM1046.13 562.089C1052.32 562.089 1057.03 563.122 1060.27 565.189C1063.51 567.27 1065.65 570.047 1066.71 573.52C1067.76 577.007 1068.29 581.387 1068.29 586.66V620.407H1058.37V614.606C1055.7 617.137 1053.02 618.965 1050.35 620.09C1047.68 621.215 1044.79 621.778 1041.7 621.778C1038.04 621.778 1034.73 620.983 1031.77 619.394C1028.82 617.819 1026.48 615.535 1024.75 612.54C1023.03 609.559 1022.17 606.029 1022.17 601.952C1022.17 595.624 1024.14 590.717 1028.08 587.23C1032.02 583.757 1037.33 582.02 1044.02 582.02C1049.29 582.02 1054.04 583.18 1058.27 585.5C1058.19 582.055 1057.84 579.313 1057.21 577.274C1056.58 575.236 1055.28 573.668 1053.3 572.571C1051.33 571.488 1048.41 570.947 1044.55 570.947H1036.74V562.089H1046.13ZM1043.07 613.236C1045.46 613.236 1047.97 612.673 1050.6 611.548C1053.25 610.423 1055.84 608.736 1058.37 606.486V593.199C1054.43 591.23 1050.14 590.246 1045.5 590.246C1041.77 590.246 1038.63 591.139 1036.1 592.924C1033.57 594.724 1032.3 597.733 1032.3 601.952C1032.3 605.889 1033.37 608.757 1035.51 610.557C1037.66 612.343 1040.18 613.236 1043.07 613.236ZM1112.39 560.823C1119.56 560.823 1124.9 562.721 1128.39 566.518C1131.86 570.314 1133.6 576.571 1133.6 585.289V620.407H1123.68V585.289C1123.68 579.805 1122.75 575.903 1120.89 573.583C1119.02 571.263 1115.73 570.103 1111.01 570.103C1105.53 570.103 1100.04 572.494 1094.55 577.274V620.407H1084.63V562.089H1094.55V568.311C1100.32 563.319 1106.26 560.823 1112.39 560.823ZM1170.01 562.089C1176.2 562.089 1180.92 563.122 1184.15 565.189C1187.39 567.27 1189.53 570.047 1190.59 573.52C1191.65 577.007 1192.17 581.387 1192.17 586.66V620.407H1182.25V614.606C1179.58 617.137 1176.91 618.965 1174.23 620.09C1171.56 621.215 1168.67 621.778 1165.58 621.778C1161.92 621.778 1158.61 620.983 1155.66 619.394C1152.7 617.819 1150.37 615.535 1148.65 612.54C1146.92 609.559 1146.05 606.029 1146.05 601.952C1146.05 595.624 1148.02 590.717 1151.96 587.23C1155.9 583.757 1161.22 582.02 1167.9 582.02C1173.18 582.02 1177.93 583.18 1182.15 585.5C1182.08 582.055 1181.73 579.313 1181.09 577.274C1180.46 575.236 1179.16 573.668 1177.19 572.571C1175.22 571.488 1172.3 570.947 1168.43 570.947H1160.62V562.089H1170.01ZM1166.95 613.236C1169.34 613.236 1171.86 612.673 1174.51 611.548C1177.14 610.423 1179.72 608.736 1182.25 606.486V593.199C1178.31 591.23 1174.02 590.246 1169.38 590.246C1165.65 590.246 1162.52 591.139 1159.98 592.924C1157.45 594.724 1156.18 597.733 1156.18 601.952C1156.18 605.889 1157.26 608.757 1159.41 610.557C1161.55 612.343 1164.06 613.236 1166.95 613.236ZM1247.58 562.089H1257.5V621.567C1257.5 629.511 1255.65 635.719 1251.95 640.191C1248.26 644.648 1241.81 646.877 1232.6 646.877C1228.09 646.877 1224.2 646.595 1220.92 646.033C1217.66 645.47 1214.3 644.486 1210.85 643.08V633.273C1214.09 634.749 1217.33 635.86 1220.56 636.605C1223.8 637.336 1226.79 637.702 1229.53 637.702C1234.6 637.702 1238.43 637.055 1241.04 635.761C1243.64 634.454 1245.38 632.591 1246.25 630.172C1247.14 627.74 1247.58 624.52 1247.58 620.512V613.025C1242.02 617.735 1236.39 620.09 1230.7 620.09C1222.82 620.09 1216.53 617.524 1211.85 612.392C1207.17 607.26 1204.84 599.878 1204.84 590.246C1204.84 580.544 1207.2 573.14 1211.91 568.036C1216.62 562.946 1222.89 560.401 1230.7 560.401C1236.32 560.401 1241.95 562.792 1247.58 567.572V562.089ZM1232.07 610.915C1237.2 610.915 1242.37 608.736 1247.58 604.377V576.22C1242.52 571.861 1237.34 569.681 1232.07 569.681C1226.58 569.681 1222.37 571.488 1219.44 575.102C1216.53 578.73 1215.08 583.778 1215.08 590.246C1215.08 596.925 1216.52 602.036 1219.4 605.579C1222.29 609.137 1226.51 610.915 1232.07 610.915ZM1281.67 592.039C1281.8 598.507 1283.42 603.674 1286.53 607.541C1289.62 611.408 1294.55 613.341 1301.3 613.341C1306.42 613.341 1312.05 611.9 1318.19 609.017L1321.25 617.243C1314.83 620.547 1307.9 622.199 1300.46 622.199C1294.27 622.199 1288.99 620.899 1284.63 618.298C1280.26 615.696 1276.95 612.076 1274.68 607.435C1272.43 602.795 1271.31 597.382 1271.31 591.195C1271.31 584.656 1272.49 579.081 1274.85 574.469C1277.2 569.871 1280.39 566.377 1284.41 563.987C1288.43 561.596 1292.92 560.401 1297.9 560.401C1305.59 560.401 1311.61 562.792 1315.97 567.572C1320.32 572.353 1322.49 579.208 1322.49 588.137V592.039H1281.67ZM1297.9 569.26C1289.19 569.26 1283.99 574.076 1282.3 583.707H1312.07C1311.71 578.786 1310.38 575.144 1308.06 572.782C1305.72 570.434 1302.34 569.26 1297.9 569.26ZM1422.44 540.47L1392.99 589.508V620.407H1382.86V589.508L1353.52 540.47H1364.08L1387.93 580.86L1411.89 540.47H1422.44ZM1460.33 622.199C1454.14 622.199 1448.87 620.85 1444.54 618.15C1440.22 615.436 1436.97 611.738 1434.79 607.056C1432.61 602.387 1431.52 597.136 1431.52 591.3C1431.52 585.465 1432.61 580.206 1434.79 575.524C1436.97 570.856 1440.22 567.165 1444.54 564.451C1448.87 561.751 1454.14 560.401 1460.33 560.401C1466.52 560.401 1471.77 561.751 1476.1 564.451C1480.43 567.165 1483.67 570.856 1485.8 575.524C1487.96 580.206 1489.03 585.465 1489.03 591.3C1489.03 597.136 1487.96 602.387 1485.8 607.056C1483.67 611.738 1480.43 615.436 1476.1 618.15C1471.77 620.85 1466.52 622.199 1460.33 622.199ZM1460.33 613.236C1466.17 613.236 1470.68 611.197 1473.88 607.119C1477.09 603.041 1478.69 597.768 1478.69 591.3C1478.69 584.832 1477.09 579.573 1473.88 575.524C1470.68 571.488 1466.17 569.471 1460.33 569.471C1454.49 569.471 1449.95 571.488 1446.71 575.524C1443.48 579.573 1441.86 584.832 1441.86 591.3C1441.86 597.768 1443.48 603.041 1446.71 607.119C1449.95 611.197 1454.49 613.236 1460.33 613.236ZM1542.94 562.089H1552.86V620.407H1542.94V614.185C1537.17 619.176 1531.23 621.672 1525.11 621.672C1517.93 621.672 1512.6 619.774 1509.13 615.977C1505.64 612.181 1503.89 605.959 1503.89 597.311V562.089H1513.81V597.311C1513.81 602.795 1514.75 606.697 1516.62 609.017C1518.48 611.337 1521.77 612.497 1526.48 612.497C1531.97 612.497 1537.46 610.107 1542.94 605.326V562.089ZM1599.41 560.823H1601.83V570.103H1599.41C1593.36 570.103 1587.48 572.529 1581.78 577.38V620.407H1571.86V562.089H1581.78V568.627C1587.55 563.424 1593.43 560.823 1599.41 560.823ZM1690.07 540.47H1700.3V620.407H1690.07V584.867H1649.75V620.407H1639.51V540.47H1649.75V575.587H1690.07V540.47ZM1727.83 592.039C1727.97 598.507 1729.59 603.674 1732.68 607.541C1735.78 611.408 1740.7 613.341 1747.46 613.341C1752.59 613.341 1758.22 611.9 1764.34 609.017L1767.4 617.243C1761 620.547 1754.07 622.199 1746.61 622.199C1740.42 622.199 1735.14 620.899 1730.78 618.298C1726.42 615.696 1723.11 612.076 1720.86 607.435C1718.61 602.795 1717.48 597.382 1717.48 591.195C1717.48 584.656 1718.67 579.081 1721.03 574.469C1723.38 569.871 1726.56 566.377 1730.57 563.987C1734.58 561.596 1739.08 560.401 1744.08 560.401C1751.75 560.401 1757.77 562.792 1762.13 567.572C1766.49 572.353 1768.67 579.208 1768.67 588.137V592.039H1727.83ZM1744.08 569.26C1735.36 569.26 1730.15 574.076 1728.46 583.707H1758.22C1757.87 578.786 1756.53 575.144 1754.21 572.782C1751.89 570.434 1748.51 569.26 1744.08 569.26ZM1800.75 562.089C1806.95 562.089 1811.66 563.122 1814.9 565.189C1818.13 567.27 1820.28 570.047 1821.33 573.52C1822.39 577.007 1822.92 581.387 1822.92 586.66V620.407H1813V614.606C1810.32 617.137 1807.65 618.965 1804.98 620.09C1802.3 621.215 1799.42 621.778 1796.32 621.778C1792.66 621.778 1789.36 620.983 1786.4 619.394C1783.45 617.819 1781.11 615.535 1779.39 612.54C1777.66 609.559 1776.8 606.029 1776.8 601.952C1776.8 595.624 1778.77 590.717 1782.71 587.23C1786.65 583.757 1791.96 582.02 1798.64 582.02C1803.92 582.02 1808.67 583.18 1812.89 585.5C1812.82 582.055 1812.47 579.313 1811.84 577.274C1811.2 575.236 1809.9 573.668 1807.93 572.571C1805.96 571.488 1803.04 570.947 1799.17 570.947H1791.36V562.089H1800.75ZM1797.69 613.236C1800.09 613.236 1802.61 612.673 1805.25 611.548C1807.88 610.423 1810.46 608.736 1813 606.486V593.199C1809.06 591.23 1804.77 590.246 1800.12 590.246C1796.39 590.246 1793.26 591.139 1790.73 592.924C1788.2 594.724 1786.93 597.733 1786.93 601.952C1786.93 605.889 1788.01 608.757 1790.16 610.557C1792.3 612.343 1794.81 613.236 1797.69 613.236ZM1854.16 621.778C1848.88 621.778 1845.08 620.723 1842.76 618.614C1840.44 616.505 1839.28 612.954 1839.28 607.963V531.189H1849.2V605.326C1849.2 608.138 1849.63 610.058 1850.51 611.084C1851.39 612.097 1853.07 612.603 1855.53 612.603C1857.5 612.603 1859.26 612.392 1860.81 611.97V621.039C1857.99 621.532 1855.78 621.778 1854.16 621.778ZM1898.38 572.002H1884.87V605.326C1884.87 608.138 1885.31 610.058 1886.18 611.084C1887.06 612.097 1888.7 612.603 1891.1 612.603C1893.21 612.603 1895.46 612.322 1897.85 611.759V620.723C1894.68 621.426 1891.87 621.778 1889.41 621.778C1884.06 621.778 1880.31 620.688 1878.16 618.508C1876.02 616.329 1874.95 612.673 1874.95 607.541V572.002H1867.35V562.827H1874.95V542.79H1884.87V562.827H1898.38V572.002ZM1940.05 560.823C1947.22 560.823 1952.56 562.721 1956.05 566.518C1959.52 570.314 1961.26 576.571 1961.26 585.289V620.407H1951.34V585.289C1951.34 579.805 1950.41 575.903 1948.55 573.583C1946.68 571.263 1943.39 570.103 1938.67 570.103C1933.19 570.103 1927.7 572.494 1922.21 577.274V620.407H1912.29V531.189H1922.21V568.311C1927.91 563.319 1933.85 560.823 1940.05 560.823Z" fill="#00A38D"/>
</g>
</g>
</g>
</g>
</g>
</g>
</g>
<defs>
<filter id="filter0_d_2_48" x="1187" y="80.5371" width="778.483" height="305.909" filterUnits="userSpaceOnUse" color-interpolation-filters="sRGB">
<feFlood flood-opacity="0" result="BackgroundImageFix"/>
<feColorMatrix in="SourceAlpha" type="matrix" values="0 0 0 0 0 0 0 0 0 0 0 0 0 0 0 0 0 0 127 0" result="hardAlpha"/>
<feOffset dy="4"/>
<feGaussianBlur stdDeviation="2"/>
<feComposite in2="hardAlpha" operator="out"/>
<feColorMatrix type="matrix" values="0 0 0 0 0 0 0 0 0 0 0 0 0 0 0 0 0 0 0.25 0"/>
<feBlend mode="normal" in2="BackgroundImageFix" result="effect1_dropShadow_2_48"/>
<feBlend mode="normal" in="SourceGraphic" in2="effect1_dropShadow_2_48" result="shape"/>
</filter>
<clipPath id="clip0_2_48">
<rect width="1962" height="645" fill="white"/>
</clipPath>
<clipPath id="clip1_2_48">
<rect width="1960.71" height="648.753" fill="white" transform="translate(0.646423 -1.87657)"/>
</clipPath>
<clipPath id="clip2_2_48">
<rect width="1960.71" height="648.753" fill="white" transform="translate(0.646423 -1.87657)"/>
</clipPath>
<clipPath id="clip3_2_48">
<rect width="1960.71" height="648.753" fill="white" transform="translate(0.646423 -1.87657)"/>
</clipPath>
<clipPath id="clip4_2_48">
<rect width="1960.71" height="648.753" fill="white" transform="translate(0.646423 -1.87657)"/>
</clipPath>
<clipPath id="clip5_2_48">
<rect width="1960.71" height="462.737" fill="white" transform="translate(0.646423 -1.87657)"/>
</clipPath>
<clipPath id="clip6_2_48">
<rect width="1960.71" height="462.737" fill="white" transform="translate(0.646423 -1.87657)"/>
</clipPath>
<clipPath id="clip7_2_48">
<rect width="672.932" height="297.909" fill="white" transform="translate(0.646423 80.5371)"/>
</clipPath>
<clipPath id="clip8_2_48">
<rect width="286.452" height="455.813" fill="white" transform="translate(787.467 0.0839081)"/>
</clipPath>
<clipPath id="clip9_2_48">
<rect width="770.563" height="297.909" fill="white" transform="translate(1190.79 80.5371)"/>
</clipPath>
<clipPath id="clip10_2_48">
<rect width="1960.71" height="115.687" fill="white" transform="translate(0.646423 531.189)"/>
</clipPath>
<clipPath id="clip11_2_48">
<rect width="1960.71" height="115.687" fill="white" transform="translate(0.646423 531.189)"/>
</clipPath>
</defs>
</svg>
