<svg width="20" height="20" viewBox="0 0 20 20" fill="none" xmlns="http://www.w3.org/2000/svg">
<rect width="20" height="20" rx="4" fill="white"/>
<path d="M15 16.125C15 17.7565 11.8672 18 10 18C8.13281 18 5 17.7565 5 16.125C5 14.9073 6.74659 14.4624 8.40869 14.3159L8.69141 15.2433C7.12841 15.3706 6 15.7148 6 16.125C6 16.6432 7.79103 17.0625 10 17.0625C12.21 17.0625 14 16.6432 14 16.125C14 15.7148 12.8721 15.3706 11.3086 15.2433L11.5918 14.3159C13.2539 14.4624 15 14.9074 15 16.125ZM11.8262 10.132L10 16.125L8.12744 9.98089C6.93556 9.33179 6.125 8.13519 6.125 6.75C6.125 4.67909 7.91603 3 10.125 3C12.334 3 14.125 4.67909 14.125 6.75C14.125 8.2478 13.1817 9.53139 11.8262 10.132ZM12 6.75C12 5.71453 11.1045 4.875 10 4.875C8.8955 4.875 8 5.71453 8 6.75C8 7.78547 8.8955 8.625 10 8.625C11.1045 8.625 12 7.78547 12 6.75Z" fill="#00A38D"/>
<path d="M12.8255 6.62803C12.8255 8.03196 11.6096 9.17006 10.1097 9.17006C8.60982 9.17006 7.39392 8.03196 7.39392 6.62803C7.39392 5.2241 8.60982 4.086 10.1097 4.086C11.6096 4.086 12.8255 5.2241 12.8255 6.62803Z" fill="white"/>
<rect x="8.37299" y="6.22498" width="3.43007" height="0.806452" rx="0.403226" fill="#00A38D"/>
<path d="M10.0954 8.23322C9.85865 8.23322 9.66669 8.04125 9.66669 7.80446V5.43617C9.66669 5.19937 9.85865 5.00741 10.0954 5.00741V5.00741C10.3322 5.00741 10.5242 5.19937 10.5242 5.43617V7.80446C10.5242 8.04125 10.3322 8.23322 10.0954 8.23322V8.23322Z" fill="#00A38D"/>
</svg>
